<?xml version="1.0" encoding="UTF-8"?> <svg xmlns="http://www.w3.org/2000/svg" width="30" height="30" viewBox="0 0 30 30" fill="none"> <path d="M29.1211 1.875H26.4258V0.878906C26.4258 0.393516 26.0323 0 25.5469 0C25.0615 0 24.668 0.393516 24.668 0.878906V1.875H21.1523V0.878906C21.1523 0.393516 20.7588 0 20.2734 0C19.788 0 19.3945 0.393516 19.3945 0.878906V1.875H15.8789V0.878906C15.8789 0.393516 15.4854 0 15 0C14.5146 0 14.1211 0.393516 14.1211 0.878906V1.875H10.6055V0.878906C10.6055 0.393516 10.212 0 9.72656 0C9.24117 0 8.84766 0.393516 8.84766 0.878906V1.875H5.33203V0.878906C5.33203 0.393516 4.93852 0 4.45312 0C3.96773 0 3.57422 0.393516 3.57422 0.878906V1.875H0.878906C0.393516 1.875 0 2.26852 0 2.75391V29.1211C0 29.6065 0.393516 30 0.878906 30H29.1211C29.6065 30 30 29.6065 30 29.1211V2.75391C30 2.26852 29.6065 1.875 29.1211 1.875ZM3.57422 3.63281V4.51172C3.57422 4.99711 3.96773 5.39062 4.45312 5.39062C4.93852 5.39062 5.33203 4.99711 5.33203 4.51172V3.63281H8.84766V4.51172C8.84766 4.99711 9.24117 5.39062 9.72656 5.39062C10.212 5.39062 10.6055 4.99711 10.6055 4.51172V3.63281H14.1211V4.51172C14.1211 4.99711 14.5146 5.39062 15 5.39062C15.4854 5.39062 15.8789 4.99711 15.8789 4.51172V3.63281H19.3945V4.51172C19.3945 4.99711 19.788 5.39062 20.2734 5.39062C20.7588 5.39062 21.1523 4.99711 21.1523 4.51172V3.63281H24.668V4.51172C24.668 4.99711 25.0615 5.39062 25.5469 5.39062C26.0323 5.39062 26.4258 4.99711 26.4258 4.51172V3.63281H28.2422V7.14844H1.75781V3.63281H3.57422ZM1.75781 28.2422V8.90625H28.2422V28.2422H1.75781Z" fill="black"></path> <path d="M9.72656 12.4219H6.21094C5.72555 12.4219 5.33203 12.8154 5.33203 13.3008V16.8164C5.33203 17.3018 5.72555 17.6953 6.21094 17.6953H9.72656C10.212 17.6953 10.6055 17.3018 10.6055 16.8164V13.3008C10.6055 12.8154 10.212 12.4219 9.72656 12.4219ZM8.84766 15.9375H7.08984V14.1797H8.84766V15.9375Z" fill="black"></path> <path d="M23.7891 12.4219H20.2734C19.788 12.4219 19.3945 12.8154 19.3945 13.3008V16.8164C19.3945 17.3018 19.788 17.6953 20.2734 17.6953H23.7891C24.2745 17.6953 24.668 17.3018 24.668 16.8164V13.3008C24.668 12.8154 24.2745 12.4219 23.7891 12.4219ZM22.9102 15.9375H21.1523V14.1797H22.9102V15.9375Z" fill="black"></path> <path d="M16.7578 19.3945H13.2422C12.7568 19.3945 12.3633 19.788 12.3633 20.2734V23.7891C12.3633 24.2745 12.7568 24.668 13.2422 24.668H16.7578C17.2432 24.668 17.6367 24.2745 17.6367 23.7891V20.2734C17.6367 19.788 17.2432 19.3945 16.7578 19.3945ZM15.8789 22.9102H14.1211V21.1523H15.8789V22.9102Z" fill="black"></path> <path d="M16.7578 12.4219H13.2422C12.7568 12.4219 12.3633 12.8154 12.3633 13.3008V16.8164C12.3633 17.3018 12.7568 17.6953 13.2422 17.6953H16.7578C17.2432 17.6953 17.6367 17.3018 17.6367 16.8164V13.3008C17.6367 12.8154 17.2432 12.4219 16.7578 12.4219ZM15.8789 15.9375H14.1211V14.1797H15.8789V15.9375Z" fill="black"></path> <path d="M23.7891 19.3945H20.2734C19.788 19.3945 19.3945 19.788 19.3945 20.2734V23.7891C19.3945 24.2745 19.788 24.668 20.2734 24.668H23.7891C24.2745 24.668 24.668 24.2745 24.668 23.7891V20.2734C24.668 19.788 24.2745 19.3945 23.7891 19.3945ZM22.9102 22.9102H21.1523V21.1523H22.9102V22.9102Z" fill="black"></path> <path d="M10.281 20.2243C9.90436 19.9181 9.35082 19.9753 9.04461 20.3518L7.25762 22.5498L6.76825 22.1485C6.39289 21.8406 5.83913 21.8955 5.53133 22.2708C5.22354 22.6461 5.27832 23.1999 5.65368 23.5077L6.82555 24.4686C7.20278 24.778 7.75848 24.7203 8.06481 24.3435L10.4086 21.4607C10.7148 21.084 10.6576 20.5305 10.281 20.2243Z" fill="black"></path> </svg> 