<?xml version="1.0" encoding="UTF-8"?> <svg xmlns="http://www.w3.org/2000/svg" width="29" height="27" viewBox="0 0 29 27" fill="none"> <path d="M26.7094 2.06805C25.3518 0.715088 23.441 0 21.1836 0C18.7166 0 16.5851 1.05029 15.0193 3.03713C14.8376 3.26768 14.6737 3.49844 14.5263 3.7239C14.3849 3.50132 14.2272 3.27365 14.0517 3.0462C12.5136 1.05338 10.3575 0 7.81641 0C5.55897 0 3.64823 0.715088 2.29063 2.06805C0.770622 3.58296 0 5.79659 0 8.64721C0 11.4144 1.61846 14.7345 4.81069 18.5153C7.24491 21.3987 10.219 24.0663 12.1906 25.6013C12.8705 26.1308 13.6851 26.3954 14.5 26.3954C15.3147 26.3954 16.1297 26.1308 16.8094 25.6013C17.4654 25.0905 18.8111 24.0017 20.4515 22.4476C20.9057 22.0175 20.9249 21.3004 20.4948 20.8462C20.0645 20.392 19.3476 20.3727 18.8934 20.8028C17.3223 22.2912 16.0412 23.328 15.4175 23.8136C14.8772 24.2344 14.1228 24.2344 13.5825 23.8136C11.7012 22.3489 8.86359 19.8039 6.54177 17.0539C3.74426 13.7404 2.26562 10.8336 2.26562 8.64721C2.26562 3.37277 5.28417 2.26562 7.81641 2.26562C12.1718 2.26562 13.3548 6.44884 13.405 6.63381C13.4063 6.63934 13.4086 6.64443 13.4101 6.64996C13.4174 6.67585 13.4256 6.70129 13.4347 6.72652C13.4384 6.73714 13.4422 6.74776 13.4464 6.75816C13.4559 6.78249 13.4663 6.80639 13.4774 6.83006C13.4822 6.84002 13.4869 6.8502 13.492 6.85993C13.5044 6.88405 13.5174 6.90728 13.5314 6.93051C13.5362 6.93826 13.5409 6.94622 13.5457 6.95396C13.5619 6.97963 13.5794 7.00419 13.5977 7.02853C13.6006 7.03229 13.6033 7.03627 13.6061 7.03981C13.7469 7.22168 13.9431 7.36306 14.1803 7.43275C14.6903 7.58232 15.22 7.35731 15.4762 6.91834C15.4766 6.91746 15.4773 6.91635 15.4779 6.91525C15.4932 6.88869 15.5074 6.8617 15.5206 6.8336C15.5248 6.82497 15.5288 6.81635 15.5328 6.80772C15.5421 6.78692 15.5507 6.76568 15.5587 6.744C15.5656 6.72652 15.5715 6.70882 15.5773 6.6909C15.5799 6.68271 15.5833 6.67496 15.5857 6.66678C15.5892 6.65527 15.9441 5.50078 16.8428 4.3839C17.9739 2.97828 19.4344 2.26562 21.1836 2.26562C23.7158 2.26562 26.7344 3.37277 26.7344 8.64721C26.7344 10.7602 25.3546 13.4962 22.6337 16.7791C22.2345 17.2608 22.3014 17.9748 22.783 18.3741C22.9943 18.5494 23.2505 18.6348 23.5052 18.6348C23.8309 18.6348 24.1541 18.4952 24.378 18.2248C27.4882 14.4726 29 11.3396 29 8.64721C29 5.79659 28.2294 3.58296 26.7094 2.06805Z" fill="black"></path> </svg> 