<svg xmlns="http://www.w3.org/2000/svg" width="1440" viewBox="0 0 1440 225" height="225" version="1.0"><path fill="#dce00d" d="M-144 -22.5H1584V247.5H-144z"/><path fill="#dce00d" d="M-144 -22.5H1584V247.5H-144z"/><path fill="#dce00d" d="M-144 -22.5H1584V247.5H-144z"/><path fill="#CF0426" d="M 230.777344 46.304688 C 189.355469 46.304688 155.777344 79.886719 155.777344 121.304688 C 155.777344 162.726562 189.355469 196.304688 230.777344 196.304688 C 272.199219 196.304688 305.777344 162.726562 305.777344 121.304688 C 305.777344 79.886719 272.199219 46.304688 230.777344 46.304688"/><g><g><g><path d="M 31.46875 -83.671875 L 31.46875 -69.28125 C 33.363281 -74.53125 36.597656 -78.519531 41.171875 -81.25 C 45.742188 -83.988281 50.988281 -85.359375 56.90625 -85.359375 L 56.90625 -61.25 C 50.320312 -62.144531 44.40625 -60.804688 39.15625 -57.234375 C 34.03125 -53.773438 31.46875 -48.03125 31.46875 -40 L 31.46875 0 L 9.875 0 L 9.875 -83.671875 Z M 31.46875 -83.671875" transform="translate(351.94 172.52)"/></g></g></g><g><g><g><path d="M 91.203125 -32.96875 L 28.109375 -32.96875 C 30.898438 -22.476562 38.769531 -17.234375 51.71875 -17.234375 C 59.96875 -17.234375 66.210938 -20.023438 70.453125 -25.609375 L 87.859375 -15.5625 C 79.609375 -3.625 67.445312 2.34375 51.375 2.34375 C 37.539062 2.34375 26.4375 -1.835938 18.0625 -10.203125 C 9.695312 -18.578125 5.515625 -29.125 5.515625 -41.84375 C 5.515625 -54.332031 9.644531 -64.816406 17.90625 -73.296875 C 26.050781 -81.773438 36.648438 -86.015625 49.703125 -86.015625 C 62.085938 -86.015625 72.1875 -81.773438 80 -73.296875 C 88.03125 -64.816406 92.046875 -54.332031 92.046875 -41.84375 C 92.046875 -39.5 91.765625 -36.539062 91.203125 -32.96875 Z M 27.78125 -49.703125 L 70.453125 -49.703125 C 69.234375 -55.171875 66.753906 -59.351562 63.015625 -62.25 C 59.273438 -65.15625 54.835938 -66.609375 49.703125 -66.609375 C 43.898438 -66.609375 39.101562 -65.128906 35.3125 -62.171875 C 31.519531 -59.210938 29.007812 -55.054688 27.78125 -49.703125 Z M 27.78125 -49.703125" transform="translate(411.519 172.52)"/></g></g></g><g><g><g><path d="M 73.296875 -73.8125 L 73.296875 -117.15625 L 94.890625 -117.15625 L 94.890625 0 L 73.296875 0 L 73.296875 -9.875 C 66.941406 -1.726562 57.90625 2.34375 46.1875 2.34375 C 34.914062 2.34375 25.265625 -1.894531 17.234375 -10.375 C 9.316406 -18.96875 5.359375 -29.457031 5.359375 -41.84375 C 5.359375 -54.113281 9.316406 -64.546875 17.234375 -73.140625 C 25.265625 -81.722656 34.914062 -86.015625 46.1875 -86.015625 C 57.90625 -86.015625 66.941406 -81.945312 73.296875 -73.8125 Z M 33.46875 -24.765625 C 38.039062 -20.410156 43.617188 -18.234375 50.203125 -18.234375 C 56.898438 -18.234375 62.425781 -20.410156 66.78125 -24.765625 C 71.125 -29.234375 73.296875 -34.925781 73.296875 -41.84375 C 73.296875 -48.757812 71.125 -54.394531 66.78125 -58.75 C 62.425781 -63.207031 56.898438 -65.4375 50.203125 -65.4375 C 43.515625 -65.4375 37.9375 -63.207031 33.46875 -58.75 C 29.113281 -54.394531 26.9375 -48.757812 26.9375 -41.84375 C 26.9375 -34.925781 29.113281 -29.234375 33.46875 -24.765625 Z M 33.46875 -24.765625" transform="translate(508.754 172.52)"/></g></g></g><g><g><g><path d="M 29.796875 -59.921875 C 29.796875 -56.347656 34.867188 -53.273438 45.015625 -50.703125 C 48.585938 -49.921875 51.820312 -49 54.71875 -47.9375 C 57.625 -46.882812 60.554688 -45.378906 63.515625 -43.421875 C 66.472656 -41.472656 68.785156 -38.878906 70.453125 -35.640625 C 72.128906 -32.410156 72.96875 -28.675781 72.96875 -24.4375 C 72.96875 -15.84375 69.734375 -9.203125 63.265625 -4.515625 C 56.796875 0.0546875 48.816406 2.34375 39.328125 2.34375 C 22.148438 2.34375 10.4375 -4.296875 4.1875 -17.578125 L 22.921875 -28.109375 C 25.492188 -20.859375 30.960938 -17.234375 39.328125 -17.234375 C 47.023438 -17.234375 50.875 -19.632812 50.875 -24.4375 C 50.875 -28.007812 45.796875 -31.078125 35.640625 -33.640625 C 31.847656 -34.640625 28.613281 -35.640625 25.9375 -36.640625 C 23.257812 -37.648438 20.359375 -39.128906 17.234375 -41.078125 C 14.109375 -43.035156 11.738281 -45.546875 10.125 -48.609375 C 8.507812 -51.679688 7.703125 -55.28125 7.703125 -59.40625 C 7.703125 -67.664062 10.710938 -74.140625 16.734375 -78.828125 C 22.867188 -83.617188 30.457031 -86.015625 39.5 -86.015625 C 46.300781 -86.015625 52.488281 -84.476562 58.0625 -81.40625 C 63.644531 -78.34375 68.054688 -73.96875 71.296875 -68.28125 L 52.890625 -58.234375 C 50.210938 -63.929688 45.75 -66.78125 39.5 -66.78125 C 36.707031 -66.78125 34.390625 -66.132812 32.546875 -64.84375 C 30.710938 -63.5625 29.796875 -61.921875 29.796875 -59.921875 Z M 29.796875 -59.921875" transform="translate(613.52 172.52)"/></g></g></g><g><g><g><path d="M 57.734375 -83.671875 L 57.734375 -62.921875 L 38.828125 -62.921875 L 38.828125 -28.109375 C 38.828125 -25.210938 39.550781 -23.09375 41 -21.75 C 42.445312 -20.414062 44.566406 -19.664062 47.359375 -19.5 C 50.148438 -19.332031 53.609375 -19.359375 57.734375 -19.578125 L 57.734375 0 C 43.117188 1.675781 32.710938 0.3125 26.515625 -4.09375 C 20.328125 -8.507812 17.234375 -16.515625 17.234375 -28.109375 L 17.234375 -62.921875 L 2.671875 -62.921875 L 2.671875 -83.671875 L 17.234375 -83.671875 L 17.234375 -100.578125 L 38.828125 -107.109375 L 38.828125 -83.671875 Z M 57.734375 -83.671875" transform="translate(691.342 172.52)"/></g></g></g><g><g><g><path d="M 73.46875 -73.8125 L 73.46875 -83.671875 L 95.0625 -83.671875 L 95.0625 0 L 73.46875 0 L 73.46875 -9.875 C 67 -1.726562 57.90625 2.34375 46.1875 2.34375 C 35.03125 2.34375 25.4375 -1.894531 17.40625 -10.375 C 9.476562 -18.96875 5.515625 -29.457031 5.515625 -41.84375 C 5.515625 -54.113281 9.476562 -64.546875 17.40625 -73.140625 C 25.4375 -81.722656 35.03125 -86.015625 46.1875 -86.015625 C 57.90625 -86.015625 67 -81.945312 73.46875 -73.8125 Z M 33.640625 -24.765625 C 37.992188 -20.410156 43.515625 -18.234375 50.203125 -18.234375 C 56.898438 -18.234375 62.425781 -20.410156 66.78125 -24.765625 C 71.238281 -29.234375 73.46875 -34.925781 73.46875 -41.84375 C 73.46875 -48.757812 71.238281 -54.394531 66.78125 -58.75 C 62.425781 -63.207031 56.898438 -65.4375 50.203125 -65.4375 C 43.515625 -65.4375 37.992188 -63.207031 33.640625 -58.75 C 29.285156 -54.394531 27.109375 -48.757812 27.109375 -41.84375 C 27.109375 -34.925781 29.285156 -29.234375 33.640625 -24.765625 Z M 33.640625 -24.765625" transform="translate(755.775 172.52)"/></g></g></g><g><g><g><path d="M 31.46875 -83.671875 L 31.46875 -69.28125 C 33.363281 -74.53125 36.597656 -78.519531 41.171875 -81.25 C 45.742188 -83.988281 50.988281 -85.359375 56.90625 -85.359375 L 56.90625 -61.25 C 50.320312 -62.144531 44.40625 -60.804688 39.15625 -57.234375 C 34.03125 -53.773438 31.46875 -48.03125 31.46875 -40 L 31.46875 0 L 9.875 0 L 9.875 -83.671875 Z M 31.46875 -83.671875" transform="translate(860.54 172.52)"/></g></g></g><g><g><g><path d="M 36.65625 -12.046875 C 36.65625 -8.140625 35.257812 -4.789062 32.46875 -2 C 29.675781 0.78125 26.328125 2.171875 22.421875 2.171875 C 18.515625 2.171875 15.164062 0.78125 12.375 -2 C 9.59375 -4.789062 8.203125 -8.140625 8.203125 -12.046875 C 8.203125 -15.953125 9.59375 -19.300781 12.375 -22.09375 C 15.164062 -24.882812 18.515625 -26.28125 22.421875 -26.28125 C 26.328125 -26.28125 29.675781 -24.882812 32.46875 -22.09375 C 35.257812 -19.300781 36.65625 -15.953125 36.65625 -12.046875 Z M 36.65625 -12.046875" transform="translate(920.12 172.52)"/></g></g></g><g><g><g><path d="M 40.078125 0 L 32.4375 0 L 29.40625 -8.6875 L 11.03125 -8.6875 L 8.015625 0 L 0.3125 0 L 15.96875 -43.15625 L 24.484375 -43.15625 Z M 20.21875 -34.828125 L 13.375 -15.359375 L 27.0625 -15.359375 Z M 20.21875 -34.828125" transform="translate(985.434 163.123)"/></g></g></g><g><g><g><path d="M 24.71875 -22.3125 L 46.296875 -22.3125 L 46.296875 -19.359375 C 46.296875 -13.441406 44.347656 -8.59375 40.453125 -4.8125 C 36.585938 -1.070312 31.488281 0.796875 25.15625 0.796875 C 18.5 0.796875 12.988281 -1.359375 8.625 -5.671875 C 4.3125 -9.984375 2.15625 -15.285156 2.15625 -21.578125 C 2.15625 -27.828125 4.3125 -33.109375 8.625 -37.421875 C 12.988281 -41.773438 18.375 -43.953125 24.78125 -43.953125 C 28.769531 -43.953125 32.4375 -43.035156 35.78125 -41.203125 C 39.132812 -39.378906 41.738281 -36.882812 43.59375 -33.71875 L 37.484375 -30.21875 C 36.335938 -32.3125 34.632812 -33.972656 32.375 -35.203125 C 30.113281 -36.441406 27.582031 -37.0625 24.78125 -37.0625 C 20.257812 -37.0625 16.539062 -35.578125 13.625 -32.609375 C 10.707031 -29.609375 9.25 -25.910156 9.25 -21.515625 C 9.25 -17.078125 10.707031 -13.398438 13.625 -10.484375 C 16.625 -7.566406 20.488281 -6.109375 25.21875 -6.109375 C 29 -6.109375 32.101562 -6.988281 34.53125 -8.75 C 36.957031 -10.519531 38.5 -12.925781 39.15625 -15.96875 L 24.71875 -15.96875 Z M 24.71875 -22.3125" transform="translate(1037.524 163.123)"/></g></g></g><g><g><g><path d="M 11.40625 -18.4375 L 11.40625 -6.78125 L 30.515625 -6.78125 L 30.515625 0 L 4.3125 0 L 4.3125 -43.15625 L 30.21875 -43.15625 L 30.21875 -36.375 L 11.40625 -36.375 L 11.40625 -25.15625 L 28.671875 -25.15625 L 28.671875 -18.4375 Z M 11.40625 -18.4375" transform="translate(1097.688 163.123)"/></g></g></g><g><g><g><path d="M 30.21875 -13.875 L 30.21875 -43.15625 L 37.296875 -43.15625 L 37.296875 0 L 31.75 0 L 11.40625 -29.28125 L 11.40625 0 L 4.3125 0 L 4.3125 -43.15625 L 9.859375 -43.15625 Z M 30.21875 -13.875" transform="translate(1142.072 163.123)"/></g></g></g><g><g><g><path d="M 24.71875 0.796875 C 18.226562 0.796875 12.84375 -1.335938 8.5625 -5.609375 C 4.289062 -9.960938 2.15625 -15.285156 2.15625 -21.578125 C 2.15625 -27.910156 4.289062 -33.210938 8.5625 -37.484375 C 12.800781 -41.796875 18.1875 -43.953125 24.71875 -43.953125 C 28.625 -43.953125 32.234375 -43.023438 35.546875 -41.171875 C 38.859375 -39.328125 41.4375 -36.828125 43.28125 -33.671875 L 37.109375 -30.09375 C 35.960938 -32.226562 34.289062 -33.921875 32.09375 -35.171875 C 29.894531 -36.429688 27.4375 -37.0625 24.71875 -37.0625 C 20.15625 -37.0625 16.414062 -35.597656 13.5 -32.671875 C 10.664062 -29.796875 9.25 -26.097656 9.25 -21.578125 C 9.25 -17.054688 10.664062 -13.359375 13.5 -10.484375 C 16.414062 -7.566406 20.15625 -6.109375 24.71875 -6.109375 C 27.4375 -6.109375 29.90625 -6.734375 32.125 -7.984375 C 34.34375 -9.234375 36.003906 -10.929688 37.109375 -13.078125 L 43.28125 -9.5625 C 41.507812 -6.4375 38.941406 -3.90625 35.578125 -1.96875 C 32.328125 -0.125 28.707031 0.796875 24.71875 0.796875 Z M 24.71875 0.796875" transform="translate(1195.395 163.123)"/></g></g></g><g><g><g><path d="M 29.40625 -43.15625 L 37.484375 -43.15625 L 22.4375 -17.140625 L 22.4375 0 L 15.359375 0 L 15.359375 -17.140625 L 0.3125 -43.15625 L 8.390625 -43.15625 L 18.921875 -24.046875 Z M 29.40625 -43.15625" transform="translate(1252.23 163.123)"/></g></g></g></svg>