<?xml version="1.0" encoding="UTF-8"?> <svg xmlns="http://www.w3.org/2000/svg" width="26" height="30" viewBox="0 0 26 30" fill="none"> <path d="M25.5168 8.13976L25.5159 8.11642C25.5029 7.82825 25.4942 7.52338 25.4889 7.18418C25.4644 5.53006 24.1495 4.1618 22.4951 4.06934C19.0459 3.87685 16.3776 2.75213 14.0977 0.529917L14.0782 0.511378C13.3346 -0.170459 12.2129 -0.170459 11.469 0.511378L11.4495 0.529917C9.16966 2.75213 6.50136 3.87685 3.05212 4.06957C1.398 4.1618 0.0828443 5.53006 0.0583541 7.18441C0.0533186 7.52132 0.0443923 7.82619 0.031346 8.11642L0.0299728 8.17066C-0.0370894 11.6879 -0.120402 16.0652 1.34398 20.0384C2.14918 22.2233 3.36866 24.1225 4.96832 25.6837C6.79021 27.4617 9.17653 28.8732 12.0609 29.8789C12.1547 29.9116 12.2522 29.9382 12.3516 29.9581C12.4916 29.986 12.6326 30 12.7736 30C12.9146 30 13.0558 29.986 13.1957 29.9581C13.295 29.9382 13.3932 29.9114 13.4875 29.8784C16.3684 28.8709 18.7522 27.4587 20.5725 25.681C22.1715 24.1193 23.391 22.2196 24.1969 20.0343C25.6667 16.0492 25.5837 11.6636 25.5168 8.13976ZM22.5453 19.4252C21.0008 23.6128 17.8479 26.4887 12.9066 28.2168C12.889 28.2227 12.8702 28.228 12.8508 28.2319C12.7997 28.2419 12.7478 28.2419 12.696 28.2316C12.6768 28.2278 12.658 28.2227 12.6406 28.2168C7.69406 26.4919 4.53916 23.6176 2.99582 19.4298C1.6461 15.7675 1.72255 11.7492 1.79007 8.20431L1.79053 8.18462C1.80426 7.87998 1.81342 7.56092 1.81845 7.21027C1.82944 6.47579 2.41446 5.86811 3.15031 5.82714C5.10221 5.7182 6.81699 5.341 8.39261 4.67404C9.96617 4.008 11.3637 3.06913 12.6647 1.80387C12.7308 1.74802 12.8167 1.74779 12.8826 1.80387C14.1838 3.06913 15.5813 4.008 17.1546 4.67404C18.7303 5.341 20.445 5.7182 22.3972 5.82714C23.133 5.86811 23.718 6.47579 23.7288 7.2105C23.7341 7.56298 23.7432 7.88204 23.7569 8.18462C23.8242 11.7337 23.8989 15.7551 22.5453 19.4252Z" fill="black"></path> <path d="M12.7733 7.52441C8.65068 7.52441 5.29688 10.8784 5.29688 15.0008C5.29688 19.1235 8.65068 22.4775 12.7733 22.4775C16.8957 22.4775 20.2497 19.1235 20.2497 15.0008C20.2497 10.8784 16.8957 7.52441 12.7733 7.52441ZM12.7733 20.7169C9.62137 20.7169 7.05721 18.1528 7.05721 15.0008C7.05721 11.8489 9.62137 9.28474 12.7733 9.28474C15.925 9.28474 18.4892 11.8489 18.4892 15.0008C18.4892 18.1528 15.925 20.7169 12.7733 20.7169Z" fill="black"></path> <path d="M14.9216 12.6794L11.449 16.152L10.5065 15.2095C10.1627 14.8657 9.60535 14.8657 9.26157 15.2095C8.91802 15.5532 8.91802 16.1106 9.26157 16.4541L10.8267 18.0192C10.9986 18.1911 11.2238 18.2769 11.449 18.2769C11.6742 18.2769 11.8994 18.1911 12.0713 18.0192L16.1665 13.9241C16.51 13.5803 16.51 13.0229 16.1665 12.6794C15.8227 12.3354 15.2654 12.3354 14.9216 12.6794Z" fill="black"></path> </svg> 