<?xml version="1.0" encoding="UTF-8"?> <svg xmlns="http://www.w3.org/2000/svg" width="80" height="79" viewBox="0 0 80 79" fill="none"> <g filter="url(#filter0_f)"> <rect x="22" y="22.0974" width="36" height="34.3206" rx="17.1603" fill="#89919A" fill-opacity="0.9" style="mix-blend-mode:multiply"></rect> </g> <circle cx="40" cy="36" r="25" fill="white"></circle> <path d="M35.8478 38.2041L35.517 42.9505C35.9903 42.9505 36.1953 42.7431 36.4412 42.4941L38.6604 40.3308L43.2588 43.7657C44.1022 44.2451 44.6964 43.9926 44.9239 42.9743L47.9423 28.5482L47.9431 28.5473C48.2106 27.2757 47.4923 26.7785 46.6706 27.0904L28.9285 34.0188C27.7176 34.4982 27.736 35.1867 28.7227 35.4986L33.2586 36.9376L43.7947 30.2133C44.2905 29.8784 44.7414 30.0637 44.3705 30.3986L35.8478 38.2041Z" fill="#56A4FF"></path> <defs> <filter id="filter0_f" x="0.253746" y="0.351158" width="79.4925" height="77.8131" filterUnits="userSpaceOnUse" color-interpolation-filters="sRGB"> <feFlood flood-opacity="0" result="BackgroundImageFix"></feFlood> <feBlend mode="normal" in="SourceGraphic" in2="BackgroundImageFix" result="shape"></feBlend> <feGaussianBlur stdDeviation="10.8731" result="effect1_foregroundBlur"></feGaussianBlur> </filter> </defs> </svg> 