<?xml version="1.0" encoding="UTF-8"?> <!-- Generator: Adobe Illustrator 18.0.0, SVG Export Plug-In . SVG Version: 6.00 Build 0) --> <svg xmlns="http://www.w3.org/2000/svg" xmlns:xlink="http://www.w3.org/1999/xlink" id="Слой_1" x="0px" y="0px" viewBox="0 0 60 60" xml:space="preserve"> <circle fill="#40B0EF" cx="30" cy="30" r="30"></circle> <path fill="#FEFEFE" d="M45,17.3c-0.1,0.8-0.3,1.6-0.5,2.4c-1.5,6.9-2.9,13.9-4.4,20.7c-0.1,0.4-0.2,0.8-0.4,1.1 c-0.3,0.6-0.9,0.8-1.5,0.6c-0.4-0.1-0.8-0.3-1.1-0.6c-2.2-1.6-4.4-3.3-6.6-4.9c-0.2-0.2-0.4-0.2-0.6,0.1c-1.1,1-2.2,2.2-3.3,3.2 c-0.4,0.4-0.9,0.6-1.5,0.6c-0.4,0-0.6-0.2-0.8-0.6c-0.6-2.1-1.4-4.3-2.1-6.4c-0.2-0.7-0.5-1.5-0.7-2.2c-0.1-0.2-0.2-0.4-0.5-0.5 c-2.2-0.6-4.4-1.4-6.5-2c-0.3-0.1-0.6-0.2-0.8-0.3c-0.6-0.4-0.6-0.9-0.2-1.4c0.4-0.3,0.8-0.6,1.3-0.7c3-1.1,5.9-2.3,8.9-3.4 c6.4-2.4,12.8-4.9,19.1-7.3c0.1,0,0.1-0.1,0.2-0.1C44,15.4,45,15.9,45,17.3z M25,38.7c0.1-0.1,0.1-0.2,0.1-0.2 c0.2-1.5,0.3-3.1,0.4-4.7c0-0.4,0.2-0.6,0.5-1c4.2-3.7,8.3-7.5,12.4-11.2c0.2-0.2,0.6-0.5,0.8-0.7c0.1-0.1,0.2-0.2,0.2-0.4 c-0.1-0.2-0.2-0.2-0.4-0.2c-0.3,0-0.6,0.2-0.9,0.4C33,24,27.8,27.2,22.7,30.5c-0.3,0.2-0.3,0.3-0.2,0.6c0.6,1.9,1.2,3.8,1.9,5.7 C24.6,37.5,24.7,38.1,25,38.7z"></path> </svg> 