<?xml version="1.0" encoding="UTF-8"?> <svg xmlns="http://www.w3.org/2000/svg" width="34" height="34" viewBox="0 0 34 34" fill="none"> <path d="M23.3748 7.11875V5.3125C23.3748 4.46712 23.0389 3.65637 22.4412 3.0586C21.8434 2.46083 21.0326 2.125 20.1873 2.125H18.0623C17.2169 2.125 16.4061 2.46083 15.8084 3.0586C15.2106 3.65637 14.8748 4.46712 14.8748 5.3125V7.11875C12.2324 8.04811 9.96963 9.82174 8.43601 12.1656C8.35927 12.2828 8.30637 12.414 8.28032 12.5517C8.25427 12.6893 8.25559 12.8307 8.2842 12.9679C8.34199 13.2448 8.50743 13.4875 8.74414 13.6425C8.98084 13.7975 9.26942 13.8521 9.54639 13.7943C9.82336 13.7365 10.066 13.5711 10.221 13.3344C11.3307 11.6282 12.9071 10.2766 14.7628 9.44046C16.6184 8.60429 18.6751 8.31869 20.6884 8.61763C22.7016 8.91658 24.5867 9.78748 26.1193 11.1268C27.6519 12.466 28.7676 14.2173 29.3336 16.1724C29.8997 18.1274 29.8923 20.2038 29.3124 22.1548C28.7325 24.1058 27.6044 25.8491 26.0623 27.1775C24.5203 28.5058 22.6291 29.3633 20.6138 29.648C18.5985 29.9326 16.5438 29.6324 14.6941 28.7831C14.4377 28.6662 14.1453 28.6559 13.8813 28.7545C13.6173 28.8532 13.4033 29.0526 13.2863 29.3091C13.1694 29.5655 13.1591 29.8579 13.2577 30.1219C13.3564 30.3859 13.5558 30.5999 13.8123 30.7169C15.3804 31.4544 17.0825 31.8645 18.8145 31.9221C20.5465 31.9797 22.2721 31.6837 23.8858 31.052C25.4995 30.4204 26.9676 29.4664 28.2002 28.2483C29.4329 27.0302 30.4043 25.5737 31.0551 23.9676C31.706 22.3615 32.0225 20.6395 31.9856 18.907C31.9486 17.1744 31.5588 15.4676 30.84 13.8907C30.1212 12.3139 29.0885 10.9001 27.8049 9.73575C26.5214 8.57141 25.014 7.68095 23.3748 7.11875V7.11875ZM16.9998 6.57688V5.3125C16.9998 5.03071 17.1117 4.76046 17.311 4.5612C17.5102 4.36194 17.7805 4.25 18.0623 4.25H20.1873C20.4691 4.25 20.7393 4.36194 20.9386 4.5612C21.1378 4.76046 21.2498 5.03071 21.2498 5.3125V6.56625C20.548 6.44324 19.8372 6.37927 19.1248 6.375C18.4121 6.38327 17.7013 6.45079 16.9998 6.57688V6.57688Z" fill="black"></path> <path d="M25.2662 14.2163C25.0909 13.9973 24.8362 13.8566 24.5575 13.8247C24.2789 13.7929 23.9989 13.8725 23.7787 14.0463L20.7931 16.4263C20.2958 16.1061 19.7165 15.9363 19.125 15.9375C18.4946 15.9375 17.8783 16.1244 17.3541 16.4747C16.8299 16.8249 16.4214 17.3228 16.1801 17.9052C15.9389 18.4876 15.8758 19.1285 15.9987 19.7469C16.1217 20.3652 16.4253 20.9331 16.8711 21.3789C17.3169 21.8247 17.8848 22.1283 18.5031 22.2513C19.1215 22.3742 19.7624 22.3111 20.3448 22.0699C20.9272 21.8286 21.4251 21.4201 21.7753 20.8959C22.1256 20.3717 22.3125 19.7554 22.3125 19.125C22.3111 18.7624 22.2464 18.4028 22.1212 18.0625L25.0962 15.6825C25.3091 15.5078 25.4457 15.2572 25.4774 14.9837C25.5091 14.7102 25.4334 14.435 25.2662 14.2163V14.2163ZM19.125 20.1875C18.9149 20.1875 18.7094 20.1252 18.5347 20.0084C18.36 19.8917 18.2238 19.7257 18.1434 19.5316C18.063 19.3375 18.0419 19.1238 18.0829 18.9177C18.1239 18.7116 18.2251 18.5223 18.3737 18.3737C18.5223 18.2251 18.7116 18.1239 18.9177 18.0829C19.1238 18.0419 19.3375 18.063 19.5316 18.1434C19.7257 18.2238 19.8917 18.36 20.0084 18.5347C20.1252 18.7094 20.1875 18.9149 20.1875 19.125C20.1875 19.4068 20.0756 19.677 19.8763 19.8763C19.677 20.0756 19.4068 20.1875 19.125 20.1875Z" fill="black"></path> <path d="M11.6875 15.9375H5.3125C5.03071 15.9375 4.76046 16.0494 4.5612 16.2487C4.36194 16.448 4.25 16.7182 4.25 17C4.25 17.2818 4.36194 17.552 4.5612 17.7513C4.76046 17.9506 5.03071 18.0625 5.3125 18.0625H11.6875C11.9693 18.0625 12.2395 17.9506 12.4388 17.7513C12.6381 17.552 12.75 17.2818 12.75 17C12.75 16.7182 12.6381 16.448 12.4388 16.2487C12.2395 16.0494 11.9693 15.9375 11.6875 15.9375Z" fill="black"></path> <path d="M11.6875 20.1875H3.1875C2.90571 20.1875 2.63546 20.2994 2.4362 20.4987C2.23694 20.698 2.125 20.9682 2.125 21.25C2.125 21.5318 2.23694 21.802 2.4362 22.0013C2.63546 22.2006 2.90571 22.3125 3.1875 22.3125H11.6875C11.9693 22.3125 12.2395 22.2006 12.4388 22.0013C12.6381 21.802 12.75 21.5318 12.75 21.25C12.75 20.9682 12.6381 20.698 12.4388 20.4987C12.2395 20.2994 11.9693 20.1875 11.6875 20.1875Z" fill="black"></path> <path d="M11.6875 24.4375H5.3125C5.03071 24.4375 4.76046 24.5494 4.5612 24.7487C4.36194 24.948 4.25 25.2182 4.25 25.5C4.25 25.7818 4.36194 26.052 4.5612 26.2513C4.76046 26.4506 5.03071 26.5625 5.3125 26.5625H11.6875C11.9693 26.5625 12.2395 26.4506 12.4388 26.2513C12.6381 26.052 12.75 25.7818 12.75 25.5C12.75 25.2182 12.6381 24.948 12.4388 24.7487C12.2395 24.5494 11.9693 24.4375 11.6875 24.4375Z" fill="black"></path> </svg> 