<svg width="80" height="79" xmlns="http://www.w3.org/2000/svg">
 <defs>
  <filter color-interpolation-filters="sRGB" filterUnits="userSpaceOnUse" height="77.8131" width="79.4925" y="0.351158" x="0.253746" id="filter0_f">
   <feGaussianBlur stdDeviation="10.8731"/>
  </filter>
 </defs>
 <g>
  <title>background</title>
  <rect fill="none" id="canvas_background" height="402" width="582" y="-1" x="-1"/>
 </g>
 <g>
  <title>Layer 1</title>
  <g id="svg_1" filter="url(#filter0_f)">
   <rect id="svg_2" fill-opacity="0.9" fill="#89919A" rx="17.1603" height="34.3206" width="36" y="22.0974" x="22"/>
  </g>
  <circle id="svg_3" fill="white" r="25" cy="37.162791" cx="40.465116"/>
  <g stroke="null" id="svg_10">
   <path stroke="null" id="svg_8" d="m39.999999,25.062508a10.72992,10.711994 0 1 0 0,21.423989a10.72992,10.711994 0 1 0 0,-21.423989z" fill="#1976d2"/>
   <path stroke="null" id="svg_9" d="m46.404152,32.582864c0.024679,-0.080876 0.036482,-0.15586 0.033263,-0.222809c-0.008047,-0.193887 -0.141635,-0.33475 -0.456022,-0.33475l-1.404547,0c-0.354624,0 -0.518255,0.21424 -0.613751,0.429015c0,0 -0.875561,1.799079 -1.88471,2.985433c-0.327263,0.343319 -0.493576,0.33475 -0.67062,0.33475c-0.09496,0 -0.334774,-0.114618 -0.334774,-0.429015l0,-2.777085c0,-0.371706 -0.092814,-0.543098 -0.392715,-0.543098l-2.49417,0c-0.218354,0 -0.332091,0.171392 -0.332091,0.343319c0,0.357245 0.481773,0.442941 0.536496,1.443977l0,1.940478c0,0.471328 -0.082084,0.557024 -0.259128,0.557024c-0.477481,0 -1.417422,-1.606799 -2.046732,-3.712777c-0.13627,-0.414554 -0.27254,-0.572021 -0.627164,-0.572021l-1.417959,0c-0.409346,0 -0.477481,0.200314 -0.477481,0.414554c0,0.386167 0.321898,2.473935 2.078922,4.874493c1.274178,1.740699 2.952874,2.744949 4.438968,2.744949c0.90024,0 0.992518,-0.228701 0.992518,-0.585946l0,-1.591802c0.000536,-0.429015 0.098715,-0.50025 0.385204,-0.50025c0.204405,0 0.621262,0.1339 1.426006,1.071199c0.928138,1.08084 1.096598,1.606799 1.628802,1.606799l1.404547,0c0.32619,0 0.513427,-0.136578 0.520938,-0.4017c0.001609,-0.067486 -0.008047,-0.143005 -0.030044,-0.227094c-0.10408,-0.308505 -0.581562,-1.06263 -1.177072,-1.781405c-0.329945,-0.397951 -0.655598,-0.792152 -0.805281,-1.006392c-0.100325,-0.139792 -0.138416,-0.238342 -0.133588,-0.332607c0.004828,-0.099086 0.056332,-0.193352 0.133588,-0.325109c-0.013949,0 1.801554,-2.544634 1.978597,-3.402129z" fill="#fff"/>
  </g>
 </g>
</svg>