<?xml version="1.0" encoding="UTF-8"?> <!-- Generator: Adobe Illustrator 18.0.0, SVG Export Plug-In . SVG Version: 6.00 Build 0) --> <svg xmlns="http://www.w3.org/2000/svg" xmlns:xlink="http://www.w3.org/1999/xlink" id="Слой_1" x="0px" y="0px" viewBox="0 0 60 60" xml:space="preserve"> <circle fill="#27D061" cx="30" cy="30" r="30"></circle> <g> <path fill="#FFFFFF" d="M38,33.3c-0.4-0.2-2.4-1.3-2.8-1.5c-0.4-0.2-0.7-0.2-1,0.2c-0.3,0.4-1.1,1.3-1.4,1.5 c-0.2,0.2-0.5,0.3-0.9,0.1c-0.4-0.2-1.7-0.7-3.3-2.2c-1.2-1.1-2-2.5-2.2-2.9c-0.2-0.4,0-0.7,0.2-0.8c0.2-0.2,0.4-0.5,0.7-0.7 c0.2-0.2,0.3-0.4,0.4-0.7c0.2-0.2,0.1-0.5,0-0.7s-0.8-2.3-1.1-3.1s-0.7-0.7-0.9-0.7s-0.5-0.1-0.8-0.1c-0.2,0-0.7,0.1-1.1,0.5 s-1.5,1.4-1.6,3.4c-0.1,2,1.4,4.1,1.5,4.3c0.2,0.3,2.7,4.7,6.9,6.5s4.2,1.3,5,1.2c0.7-0.1,2.5-0.9,2.9-1.9c0.4-1,0.4-1.8,0.3-2 C38.6,33.6,38.4,33.5,38,33.3z M30.3,43.1c-2.8,0-5.4-0.8-7.5-2.3l-5.2,1.7l1.7-5c-1.6-2.2-2.6-5-2.6-7.9c0-7.5,6.1-13.5,13.7-13.5 s13.5,6,13.5,13.5C43.9,37,37.8,43.1,30.3,43.1z M30.3,13.3c-9,0-16.4,7.2-16.4,16.3c0,3.1,0.9,5.9,2.4,8.4l-2.9,8.7l9-2.8 c2.4,1.3,5,2,7.9,2c9.1-0.1,16.4-7.3,16.4-16.3C46.7,20.6,39.3,13.3,30.3,13.3z"></path> </g> </svg> 