<?xml version="1.0" encoding="UTF-8"?> <svg xmlns="http://www.w3.org/2000/svg" width="80" height="79" viewBox="0 0 80 79" fill="none"> <g filter="url(#filter0_f)"> <rect x="22" y="22.0974" width="36" height="34.3206" rx="17.1603" fill="#89919A" fill-opacity="0.9" style="mix-blend-mode:multiply"></rect> </g> <circle cx="40" cy="36" r="25" fill="white"></circle> <path d="M40.0025 26H39.9975C34.4838 26 30 30.485 30 36C30 38.1875 30.705 40.215 31.9038 41.8613L30.6575 45.5763L34.5013 44.3475C36.0825 45.395 37.9687 46 40.0025 46C45.5162 46 50 41.5137 50 36C50 30.4863 45.5162 26 40.0025 26ZM45.8212 40.1212C45.58 40.8025 44.6225 41.3675 43.8587 41.5325C43.3362 41.6437 42.6537 41.7325 40.3562 40.78C37.4175 39.5625 35.525 36.5762 35.3775 36.3825C35.2363 36.1887 34.19 34.8013 34.19 33.3663C34.19 31.9313 34.9188 31.2325 35.2125 30.9325C35.4538 30.6863 35.8525 30.5737 36.235 30.5737C36.3587 30.5737 36.47 30.58 36.57 30.585C36.8638 30.5975 37.0112 30.615 37.205 31.0788C37.4462 31.66 38.0337 33.095 38.1037 33.2425C38.175 33.39 38.2463 33.59 38.1463 33.7838C38.0525 33.9838 37.97 34.0725 37.8225 34.2425C37.675 34.4125 37.535 34.5425 37.3875 34.725C37.2525 34.8838 37.1 35.0538 37.27 35.3475C37.44 35.635 38.0275 36.5937 38.8925 37.3637C40.0087 38.3575 40.9137 38.675 41.2375 38.81C41.4787 38.91 41.7662 38.8863 41.9425 38.6988C42.1662 38.4575 42.4425 38.0575 42.7237 37.6638C42.9237 37.3813 43.1763 37.3462 43.4413 37.4462C43.7113 37.54 45.14 38.2462 45.4338 38.3925C45.7275 38.54 45.9212 38.61 45.9925 38.7338C46.0625 38.8575 46.0625 39.4387 45.8212 40.1212Z" fill="#25D366"></path> <defs> <filter id="filter0_f" x="0.253746" y="0.351158" width="79.4925" height="77.8131" filterUnits="userSpaceOnUse" color-interpolation-filters="sRGB"> <feFlood flood-opacity="0" result="BackgroundImageFix"></feFlood> <feBlend mode="normal" in="SourceGraphic" in2="BackgroundImageFix" result="shape"></feBlend> <feGaussianBlur stdDeviation="10.8731" result="effect1_foregroundBlur"></feGaussianBlur> </filter> </defs> </svg> 